<?xml version="1.0" encoding="UTF-8"?>
<svg id="Layer_1" fill="#ffffff" xmlns="http://www.w3.org/2000/svg" width="2000" height="636.5" viewBox="0 0 2000 636.5">
  <g>
    <path class="cls-1" d="M308.65,7.17c-5.99,1.12-16.61,3.23-29.68,6.6-53.78,13.86-94.52,35-122.03,49.47-7.52,3.96-17.73,9.49-29.68,16.49,2.53-6.56,7.06-16.61,14.96-27.22C184.12-3.74,264.43-.19,270.46.16c15.36.91,28.33,3.94,38.19,7Z"/>
    <path class="cls-1" d="M572.49,501.87c-13.35,21.71-48.69,72.66-116.23,105.82-72.52,35.61-139.19,29.6-164.1,26.1,41.34-10.16,91.54-26.07,146.02-51.64,55.12-25.87,99.86-54.7,134.31-80.28Z"/>
    <path class="cls-1" d="M331.8,220.24c-11.04,31.97-13.81,64.08,1.82,95.54,15.63,31.47,41.53,50.35,74.42,60.22-8.8,35.9-65.36,61.54-110.63,50.88-57.99-13.67-94.22-70.44-81.13-127.11,12.5-54.1,64.41-90.65,115.53-79.52Z"/>
    <path class="cls-1" d="M623.61,411.17c-26.27,41.98-87.59,64.14-87.59,64.14-190.59,68.87-248.95,87.59-362.86,110.9-31.02,6.35-69.78-14.52-84.88-47.43,43.77-4.07,88.39-.88,132.18-22.97-12.78-1.83-24.83-2.9-36.3-4.28-3.82-.46-17.71-2.78-32.87-6.19-42.5-9.56-71.81-16.15-98.24-38.1-14.2-11.8-22.35-23.69-26.38-29.68C-.13,397.79-.79,355.06.29,335.32c16.13,15.11,34.21,30.77,54.37,46.47,27.53,21.45,54.2,39.28,78.86,54.07-10.84-19.18-28.27-56.27-29.68-105.54-2.18-76.19,35.41-129.99,48.17-146.72-15.98,6.35-32.9,13.95-50.44,23.08-38.23,19.92-69.64,42.07-94.68,62.67-.97-17.02.43-43.21,16.49-65.96,10.47-14.84,23.16-22.52,29.68-26.38C223.92,75.9,343.28,45.09,343.28,45.09c66.81-17.24,92.55-17.52,118.73-9.89,40.7,11.86,67.76,38.56,82.45,56.07-11.86-3.6-30.22-7.64-52.77-6.6-24.83,1.15-44.25,7.98-56.07,13.19,10.26.04,113.13,2.13,164.9,82.45,19.99,31.01,25.12,62.45,26.38,82.45-13.23-13.38-33.84-31.21-62.66-46.17-31.71-16.46-60.77-22.91-80.29-25.68,10.27,11.68,41.81,50.52,45.31,109.73,3.13,52.89-17.91,91.62-26.38,105.54,15.33-.19,38.86-2.38,65.19-12.84,35.05-13.93,57.46-35.54,68.73-48.12,1.35,7.43,2.57,19.13,0,32.98,0,0-3.13,16.91-13.19,32.98ZM471.26,321.97c-.25-85.53-68.3-153.19-154.02-153.15-85.05.04-154.31,68.62-154.91,153.39-.6,84.1,71.43,155.52,156.08,154.73,85.23-.79,153.11-69.61,152.86-154.97Z"/>
  </g>
  <g>
    <path class="cls-1" d="M1101.32,485.3h-74.95l-30.03-95.46h-125.73l-30.03,95.46h-74.95l126.46-374.27h82.76l126.47,374.27ZM935.06,189.16h-3.17l-46.39,146.48h95.95l-46.39-146.48Z"/>
    <path class="cls-1" d="M1303.47,199.42c36.29,0,65.22,13.15,86.79,39.43,21.56,26.29,32.35,61.73,32.35,106.32s-10.83,80-32.47,106.2c-21.65,26.21-50.62,39.31-86.91,39.31-18.23,0-35.2-4.76-50.9-14.28-15.71-9.52-28.85-22.66-39.43-39.43h-.73v145.26h-68.6V204.54h68.6v48.58h.73c10.25-16.76,23.32-29.91,39.18-39.43s33-14.28,51.39-14.28ZM1282.71,250.93c-21.48,0-38.37,8.38-50.66,25.15-12.29,16.77-18.43,39.71-18.43,68.85s6.14,51.68,18.43,68.11c12.29,16.44,29.25,24.66,50.9,24.66s37.56-8.34,50.17-25.02c12.61-16.68,18.92-39.18,18.92-67.5s-6.39-51.31-19.17-68.48c-12.78-17.17-29.5-25.76-50.17-25.76Z"/>
    <path class="cls-1" d="M1725.34,335.16c0,7.16-.98,16.6-2.93,28.32h-197.51c.81,21.65,7,39.39,18.55,53.22,11.55,13.84,27.42,20.75,47.61,20.75,16.44,0,30.31-4.6,41.63-13.79,11.31-9.19,19.33-21.52,24.05-36.99l62.5,14.65c-7.81,27.18-22.54,48.83-44.19,64.94-21.65,16.11-49.4,24.17-83.25,24.17-41.34,0-74.1-13.39-98.27-40.16-24.17-26.77-36.25-62.21-36.25-106.32s12.29-79.02,36.87-105.22c24.57-26.2,56.96-39.31,97.17-39.31s72.39,12.41,97.05,37.23c24.66,24.82,36.99,57.66,36.99,98.51ZM1591.8,252.39c-19.86,0-35.61,6.27-47.24,18.8-11.64,12.54-17.38,27.34-17.21,44.43h127.2c.32-17.25-5.05-32.1-16.11-44.56-11.07-12.45-26.61-18.68-46.63-18.68Z"/>
    <path class="cls-1" d="M1998.05,204.54l-83.98,139.4,85.94,141.36h-73.24l-61.04-105.47h-.73l-60.55,105.47h-73.24l85.21-141.36-83.25-139.4h73l60.06,104.49h.73l58.11-104.49h73Z"/>
  </g>
</svg>